<svg xmlns:mydata="http://www.w3.org/2000/svg" mydata:contrastcolor="ffffff" mydata:template="Contrast" mydata:presentation="2.5" mydata:layouttype="undefined" mydata:specialfontid="undefined" mydata:id1="248" mydata:id2="247" mydata:companyname="Documentation Vue" mydata:companytagline="" version="1.1" xmlns="http://www.w3.org/2000/svg" xmlns:xlink="http://www.w3.org/1999/xlink" viewBox="0 45 550 380"><g fill="#222223" fill-rule="none" stroke="none" stroke-width="1" stroke-linecap="butt" stroke-linejoin="miter" stroke-miterlimit="10" stroke-dasharray="" stroke-dashoffset="0" font-family="none" font-weight="none" font-size="none" text-anchor="none" style="mix-blend-mode: normal"><g data-paper-data="{&quot;isGlobalGroup&quot;:true,&quot;bounds&quot;:{&quot;x&quot;:146.00000000000003,&quot;y&quot;:106.00000000000003,&quot;width&quot;:258,&quot;height&quot;:258}}"><g data-paper-data="{&quot;isIcon&quot;:&quot;true&quot;,&quot;iconType&quot;:&quot;icon&quot;,&quot;rawIconId&quot;:&quot;358997&quot;,&quot;selectedEffects&quot;:{&quot;container&quot;:&quot;circle_simple_filled&quot;,&quot;transformation&quot;:&quot;&quot;,&quot;pattern&quot;:&quot;&quot;},&quot;isDetailed&quot;:false,&quot;fillRule&quot;:&quot;nonzero&quot;,&quot;blockLetter&quot;:&quot;O&quot;,&quot;blockLetterId&quot;:0,&quot;relativeBoundsIconToContainer&quot;:{&quot;top&quot;:-3.2682450533170115e-16,&quot;left&quot;:-2.3344607523692934e-16},&quot;widthRatioIconToContainer&quot;:0.5701942019113877,&quot;heightRatioIconToContainer&quot;:0.6927188481839182,&quot;bounds&quot;:{&quot;x&quot;:196.3827756007484,&quot;y&quot;:156.3827756007484,&quot;width&quot;:157.23366263019005,&quot;height&quot;:157.23366263019005},&quot;iconStyle&quot;:&quot;standalone&quot;,&quot;suitableAsStandaloneIcon&quot;:true}" fill-rule="nonzero"><path d="M196.38278,234.99961c0,-43.41887 35.19796,-78.61683 78.61683,-78.61683c43.41887,0 78.61683,35.19796 78.61683,78.61683c0,43.41887 -35.19796,78.61683 -78.61683,78.61683c-43.41887,0 -78.61683,-35.19796 -78.61683,-78.61683zM230.17275,180.54025v62.1075l89.65372,-31.05545zM319.82647,289.45896v-62.1075l-89.65372,31.05545z" data-paper-data="{&quot;isPathIcon&quot;:true}"></path></g><g data-paper-data="{&quot;isPrimaryText&quot;:true}" fill-rule="nonzero"><path d="M166.47642,219.43482l-0.58776,3.71629l13.89964,2.19834l0.58776,-3.71629c0.60505,-3.82559 -2.01739,-7.43339 -5.84298,-8.03844c-3.84381,-0.60793 -7.45161,2.01451 -8.05666,5.8401zM178.04427,221.26437l-0.21897,1.3845l-9.23606,-1.46076l0.21897,-1.3845c0.40048,-2.53218 2.80569,-4.28047 5.35608,-3.8771c2.53218,0.40048 4.28047,2.80569 3.87998,5.33786z" data-paper-data="{&quot;glyphName&quot;:&quot;D&quot;,&quot;glyphIndex&quot;:0,&quot;firstGlyphOfWord&quot;:true,&quot;word&quot;:1}"></path><path d="M172.19403,196.84859c-1.37174,3.70087 0.51562,7.84263 4.23379,9.22078c3.70087,1.37174 7.84904,-0.53292 9.22078,-4.23379c1.37815,-3.71817 -0.53292,-7.84904 -4.23379,-9.22078c-3.71817,-1.37815 -7.84263,0.51562 -9.22078,4.23379zM183.38311,200.99587c-0.91022,2.45572 -3.65986,3.71824 -6.11558,2.80802c-2.47301,-0.91663 -3.73553,-3.66627 -2.82531,-6.12199c0.91663,-2.47301 3.66627,-3.73553 6.13929,-2.8189c2.45572,0.91022 3.71824,3.65986 2.80161,6.13288z" data-paper-data="{&quot;glyphName&quot;:&quot;O&quot;,&quot;glyphIndex&quot;:1,&quot;word&quot;:1}"></path><path d="M183.96085,179.30601c0.02989,-0.80928 0.29043,-1.60417 0.72267,-2.29099c0.67784,-1.07706 1.73783,-1.82644 2.95863,-2.10416l0.3815,-0.08679l-0.85311,-2.28025l-0.31502,0.08504c-1.7884,0.4871 -3.2287,1.56374 -4.20124,3.10908c-2.08263,3.30923 -1.04871,7.7953 2.24491,9.86811c3.07508,1.93527 7.64391,1.32389 9.88372,-2.23509c0.97255,-1.54535 1.28316,-3.35473 0.97006,-5.14259l-0.05961,-0.32081l-2.4249,0.21728l0.08679,0.3815c0.27772,1.2208 0.06064,2.50066 -0.6172,3.57772c-1.41461,2.24778 -4.42327,2.8386 -6.56178,1.49275c-1.42047,-0.89396 -2.29135,-2.48805 -2.21542,-4.2708z" data-paper-data="{&quot;glyphName&quot;:&quot;C&quot;,&quot;glyphIndex&quot;:2,&quot;word&quot;:1}"></path><path d="M197.29648,157.48498l-1.59681,1.7388l7.10465,6.52446c0.88299,0.81088 0.92931,2.20562 0.10595,3.10219c-0.81088,0.88299 -2.21698,0.96895 -3.09997,0.15807l-7.10465,-6.52446l-1.59681,1.7388l7.10465,6.52446c1.84748,1.69661 4.76614,1.57236 6.46275,-0.27512c1.70908,-1.86106 1.57236,-4.76614 -0.27512,-6.46275z" data-paper-data="{&quot;glyphName&quot;:&quot;U&quot;,&quot;glyphIndex&quot;:3,&quot;word&quot;:1}"></path><path d="M204.52374,150.34288l8.56683,11.67162l1.91801,-1.4078l-4.84544,-6.60153l6.67769,1.71052l0.38475,-6.89427l4.84544,6.60153l1.93288,-1.41871l-8.56683,-11.67162l-0.61518,10.63244z" data-paper-data="{&quot;glyphName&quot;:&quot;M&quot;,&quot;glyphIndex&quot;:4,&quot;word&quot;:1}"></path><path d="M230.24625,150.39957l8.26206,-3.88419l-0.99655,-2.11976l-6.12561,2.87979l-1.8597,-3.95577l4.60672,-2.16573l-0.99655,-2.11976l-4.60672,2.16573l-1.13779,-2.4202l6.12561,-2.87979l-1.0044,-2.13645l-8.26206,3.88419z" data-paper-data="{&quot;glyphName&quot;:&quot;E&quot;,&quot;glyphIndex&quot;:5,&quot;word&quot;:1}"></path><path d="M251.80602,136.58974l-10.37467,-6.54759l3.73652,14.00679l2.281,-0.60849l-2.21529,-8.30428l10.37467,6.54759l-3.73652,-14.00679l-2.281,0.60849z" data-paper-data="{&quot;glyphName&quot;:&quot;N&quot;,&quot;glyphIndex&quot;:6,&quot;word&quot;:1}"></path><path d="M261.23244,126.10346l0.19709,2.35253l3.36338,-0.28177l0.97927,11.68913l2.35253,-0.19709l-0.97927,-11.68913l3.36338,-0.28177l-0.19709,-2.35253z" data-paper-data="{&quot;glyphName&quot;:&quot;T&quot;,&quot;glyphIndex&quot;:7,&quot;word&quot;:1}"></path><path d="M275.85777,139.30001l2.39091,0.17978l0.88267,-1.65372l6.45545,0.48542l0.62544,1.76712l2.37252,0.1784l-5.27926,-14.89752zM282.89891,130.76662l1.81797,5.09352l-4.35881,-0.32776z" data-paper-data="{&quot;glyphName&quot;:&quot;A&quot;,&quot;glyphIndex&quot;:8,&quot;word&quot;:1}"></path><path d="M298.27818,127.72618l-0.59512,2.28453l3.26616,0.85083l-2.95698,11.35126l2.28453,0.59512l2.95698,-11.35126l3.26616,0.85083l0.59512,-2.28453z" data-paper-data="{&quot;glyphName&quot;:&quot;T&quot;,&quot;glyphIndex&quot;:9,&quot;word&quot;:1}"></path><path d="M315.53069,132.97974l-0.92973,2.16998l1.54272,0.66098l-3.68988,8.61213l-1.54272,-0.66098l-0.92247,2.15303l5.28934,2.26623l0.92247,-2.15303l-1.57663,-0.67551l3.68988,-8.61213l1.57663,0.67551l0.92973,-2.16998z" data-paper-data="{&quot;glyphName&quot;:&quot;I&quot;,&quot;glyphIndex&quot;:10,&quot;word&quot;:1}"></path><path d="M334.57035,142.94668c-3.31261,-2.14587 -7.76629,-1.20724 -9.92218,2.12085c-2.14587,3.31261 -1.19176,7.77632 2.12085,9.92218c3.32809,2.1559 7.77632,1.19176 9.92218,-2.12085c2.1559,-3.32809 1.20724,-7.76629 -2.12085,-9.92218zM328.08261,152.96191c-2.19809,-1.42389 -2.83053,-4.38269 -1.40663,-6.58078c1.43392,-2.21357 4.39272,-2.84601 6.59081,-1.42211c2.21357,1.43392 2.84601,4.39272 1.41208,6.60629c-1.42389,2.19809 -4.38269,2.83053 -6.59626,1.39661z" data-paper-data="{&quot;glyphName&quot;:&quot;O&quot;,&quot;glyphIndex&quot;:11,&quot;word&quot;:1}"></path><path d="M347.81778,164.87816l0.33588,-12.26344l-10.13834,10.36174l1.68741,1.65103l6.01077,-6.14322l-0.33588,12.26344l10.13834,-10.36174l-1.68741,-1.65103z" data-paper-data="{&quot;glyphName&quot;:&quot;N&quot;,&quot;glyphIndex&quot;:12,&quot;lastGlyphOfWord&quot;:true,&quot;word&quot;:1}"></path><path d="M363.06502,186.52901l6.0091,-7.85928l-1.15704,-2.10001l-9.60131,12.57597l15.76031,-1.39748l-1.15704,-2.10001z" data-paper-data="{&quot;glyphName&quot;:&quot;V&quot;,&quot;glyphIndex&quot;:13,&quot;firstGlyphOfWord&quot;:true,&quot;word&quot;:2}"></path><path d="M380.50091,204.69353l-0.74462,-2.24026l-9.15357,3.04249c-1.13763,0.37813 -2.37938,-0.25866 -2.76333,-1.41379c-0.37813,-1.13763 0.22952,-2.40857 1.36716,-2.7867l9.15357,-3.04249l-0.74462,-2.24026l-9.15357,3.04249c-2.38028,0.79116 -3.68896,3.40294 -2.8978,5.78322c0.79698,2.39778 3.40294,3.68896 5.78322,2.8978z" data-paper-data="{&quot;glyphName&quot;:&quot;U&quot;,&quot;glyphIndex&quot;:14,&quot;word&quot;:2}"></path><path d="M368.84974,216.26595l1.35359,9.02864l2.31644,-0.34729l-1.00357,-6.69396l4.3228,-0.64808l0.75473,5.03415l2.31644,-0.34729l-0.75473,-5.03415l2.64475,-0.39651l1.00357,6.69396l2.33468,-0.35002l-1.35359,-9.02864z" data-paper-data="{&quot;glyphName&quot;:&quot;E&quot;,&quot;glyphIndex&quot;:15,&quot;lastGlyphOfWord&quot;:true,&quot;word&quot;:2}"></path></g><g data-paper-data="{&quot;isMirroredPrimaryText&quot;:true}" fill-rule="nonzero"><path d="M179.95706,248.43232l-0.58776,-3.71629l-13.89964,2.19834l0.58776,3.71629c0.60505,3.82559 4.21285,6.44803 8.03844,5.84298c3.84381,-0.60793 6.46624,-4.21573 5.8612,-8.04132zM168.38921,250.26187l-0.21897,-1.3845l9.23606,-1.46076l0.21897,1.3845c0.40048,2.53218 -1.34781,4.93738 -3.8982,5.34074c-2.53218,0.40048 -4.93738,-1.34781 -5.33786,-3.87998z" data-paper-data="{&quot;glyphName&quot;:&quot;D&quot;,&quot;glyphIndex&quot;:0,&quot;firstGlyphOfWord&quot;:true,&quot;word&quot;:1}"></path><path d="M185.23355,268.31748c-1.37174,-3.70087 -5.50261,-5.61194 -9.22078,-4.23379c-3.70087,1.37174 -5.60553,5.51991 -4.23379,9.22078c1.37815,3.71817 5.51991,5.60553 9.22078,4.23379c3.71817,-1.37815 5.61194,-5.50261 4.23379,-9.22078zM174.04446,272.46475c-0.91022,-2.45572 0.3523,-5.20536 2.80802,-6.11558c2.47301,-0.91663 5.22265,0.34589 6.13288,2.80161c0.91663,2.47301 -0.34589,5.22265 -2.8189,6.13929c-2.45572,0.91022 -5.20536,-0.3523 -6.12199,-2.82531z" data-paper-data="{&quot;glyphName&quot;:&quot;O&quot;,&quot;glyphIndex&quot;:1,&quot;word&quot;:1}"></path><path d="M190.64174,286.48865c0.71671,0.37704 1.32066,0.9558 1.7529,1.64262c0.67784,1.07706 0.89492,2.35692 0.6172,3.57772l-0.08679,0.3815l2.4249,0.21728l0.05961,-0.32081c0.3345,-1.82312 -0.01313,-3.58742 -0.98567,-5.13277c-2.08263,-3.30923 -6.57449,-4.31771 -9.86811,-2.24491c-3.07508,1.93527 -4.50033,6.31895 -2.26052,9.87793c0.97255,1.54535 2.46949,2.60812 4.21685,3.09926l0.31502,0.08504l0.85311,-2.28025l-0.3815,-0.08679c-1.2208,-0.27772 -2.2808,-1.0271 -2.95863,-2.10416c-1.41461,-2.24778 -0.64576,-5.21593 1.49275,-6.56178c1.42047,-0.89396 3.23443,-0.98954 4.80888,-0.14987z" data-paper-data="{&quot;glyphName&quot;:&quot;C&quot;,&quot;glyphIndex&quot;:2,&quot;word&quot;:1}"></path><path d="M207.34895,303.28268l-1.59681,-1.7388l-7.10465,6.52446c-0.88299,0.81088 -2.27661,0.7385 -3.09997,-0.15807c-0.81088,-0.88299 -0.77703,-2.29131 0.10595,-3.10219l7.10465,-6.52446l-1.59681,-1.7388l-7.10465,6.52446c-1.84748,1.69661 -1.97173,4.61527 -0.27512,6.46275c1.70908,1.86106 4.61527,1.97173 6.46275,0.27512z" data-paper-data="{&quot;glyphName&quot;:&quot;U&quot;,&quot;glyphIndex&quot;:3,&quot;word&quot;:1}"></path><path d="M213.07966,307.99959l-8.56683,11.67162l1.91801,1.4078l4.84544,-6.60153l0.36988,6.88336l6.69256,-1.69961l-4.84544,6.60153l1.93288,1.41871l8.56683,-11.67162l-10.32789,2.60035z" data-paper-data="{&quot;glyphName&quot;:&quot;M&quot;,&quot;glyphIndex&quot;:4,&quot;word&quot;:1}"></path><path d="M224.07863,332.71879l8.26206,3.88419l0.99655,-2.11976l-6.12561,-2.87979l1.8597,-3.95577l4.60672,2.16573l0.99655,-2.11976l-4.60672,-2.16573l1.13779,-2.4202l6.12561,2.87979l1.0044,-2.13645l-8.26206,-3.88419z" data-paper-data="{&quot;glyphName&quot;:&quot;E&quot;,&quot;glyphIndex&quot;:5,&quot;word&quot;:1}"></path><path d="M250.90279,336.79534l-5.73492,-10.84506l-3.73652,14.00679l2.281,0.60849l2.21529,-8.30428l5.73492,10.84506l3.73652,-14.00679l-2.281,-0.60849z" data-paper-data="{&quot;glyphName&quot;:&quot;N&quot;,&quot;glyphIndex&quot;:6,&quot;word&quot;:1}"></path><path d="M262.37184,330.29519l-0.19709,2.35253l3.36338,0.28177l-0.97927,11.68913l2.35253,0.19709l0.97927,-11.68913l3.36338,0.28177l0.19709,-2.35253z" data-paper-data="{&quot;glyphName&quot;:&quot;T&quot;,&quot;glyphIndex&quot;:7,&quot;word&quot;:1}"></path><path d="M276.94477,345.15501l2.39091,-0.17978l0.62544,-1.76712l6.45545,-0.48542l0.88267,1.65372l2.37252,-0.1784l-7.44773,-13.94051zM282.63062,335.66462l2.55923,4.76438l-4.35881,0.32776z" data-paper-data="{&quot;glyphName&quot;:&quot;A&quot;,&quot;glyphIndex&quot;:8,&quot;word&quot;:1}"></path><path d="M294.83766,329.06559l0.59512,2.28453l3.26616,-0.85083l2.95698,11.35126l2.28453,-0.59512l-2.95698,-11.35126l3.26616,-0.85083l-0.59512,-2.28453z" data-paper-data="{&quot;glyphName&quot;:&quot;T&quot;,&quot;glyphIndex&quot;:9,&quot;word&quot;:1}"></path><path d="M310.15567,324.47425l0.92973,2.16998l1.54272,-0.66098l3.68988,8.61213l-1.54272,0.66098l0.92247,2.15303l5.28934,-2.26623l-0.92247,-2.15303l-1.57663,0.67551l-3.68988,-8.61213l1.57663,-0.67551l-0.92973,-2.16998z" data-paper-data="{&quot;glyphName&quot;:&quot;I&quot;,&quot;glyphIndex&quot;:10,&quot;word&quot;:1}"></path><path d="M327.00968,315.381c-3.31261,2.14587 -4.27675,6.5941 -2.12085,9.92218c2.14587,3.31261 6.60958,4.26672 9.92218,2.12085c3.32809,-2.1559 4.26672,-6.60958 2.12085,-9.92218c-2.1559,-3.32809 -6.5941,-4.27675 -9.92218,-2.12085zM333.49742,325.39622c-2.19809,1.42389 -5.15689,0.79145 -6.58078,-1.40663c-1.43392,-2.21357 -0.80148,-5.17237 1.39661,-6.59626c2.21357,-1.43392 5.17237,-0.80148 6.60629,1.41208c1.42389,2.19809 0.79145,5.15689 -1.42211,6.59081z" data-paper-data="{&quot;glyphName&quot;:&quot;O&quot;,&quot;glyphIndex&quot;:11,&quot;word&quot;:1}"></path><path d="M350.26853,307.6258l-12.2532,-0.60305l10.13834,10.36174l1.68741,-1.65103l-6.01077,-6.14322l12.2532,0.60305l-10.13834,-10.36174l-1.68741,1.65103z" data-paper-data="{&quot;glyphName&quot;:&quot;N&quot;,&quot;glyphIndex&quot;:12,&quot;lastGlyphOfWord&quot;:true,&quot;word&quot;:1}"></path><path d="M366.97426,285.62407l-9.85403,-0.8808l-1.15704,2.10001l15.76031,1.39748l-9.60131,-12.57597l-1.15704,2.10001z" data-paper-data="{&quot;glyphName&quot;:&quot;V&quot;,&quot;glyphIndex&quot;:13,&quot;firstGlyphOfWord&quot;:true,&quot;word&quot;:2}"></path><path d="M367.5494,261.00082l-0.74462,2.24026l9.15357,3.04249c1.13763,0.37813 1.7511,1.63156 1.36716,2.7867c-0.37813,1.13763 -1.62569,1.79192 -2.76333,1.41379l-9.15357,-3.04249l-0.74462,2.24026l9.15357,3.04249c2.38028,0.79116 4.99205,-0.51752 5.78322,-2.8978c0.79698,-2.39778 -0.51752,-4.99205 -2.8978,-5.78322z" data-paper-data="{&quot;glyphName&quot;:&quot;U&quot;,&quot;glyphIndex&quot;:14,&quot;word&quot;:2}"></path><path d="M383.18613,255.8826l1.35359,-9.02864l-2.31644,-0.34729l-1.00357,6.69396l-4.3228,-0.64808l0.75473,-5.03415l-2.31644,-0.34729l-0.75473,5.03415l-2.64475,-0.39651l1.00357,-6.69396l-2.33468,-0.35002l-1.35359,9.02864z" data-paper-data="{&quot;glyphName&quot;:&quot;E&quot;,&quot;glyphIndex&quot;:15,&quot;lastGlyphOfWord&quot;:true,&quot;word&quot;:2}"></path></g><g data-paper-data="{&quot;isContainerElementsWrapper&quot;:true}" fill-rule="evenodd"><path d="M183.78305,143.78305c-11.90226,11.90224 -21.11727,25.57007 -27.64502,41.00349c-6.75869,15.97959 -10.13803,32.71728 -10.13803,50.21306c0,17.49552 3.37934,34.23304 10.13803,50.21257c6.52795,15.43379 15.74295,29.10199 27.64502,41.00457c11.90387,11.90324 25.57173,21.11779 41.00359,27.64364c15.98038,6.75974 32.71803,10.13961 50.21296,10.13961c17.49552,0 34.23304,-3.37987 50.21257,-10.13961c15.4351,-6.52782 29.1033,-15.74237 41.00457,-27.64364c11.90193,-11.90324 21.11648,-25.57143 27.64364,-41.00457c6.75974,-15.97953 10.13961,-32.71705 10.13961,-50.21257c0,-17.49559 -3.37987,-34.23327 -10.13961,-50.21306c-6.52782,-15.43403 -15.74237,-29.10186 -27.64364,-41.00349c-11.90259,-11.90233 -25.57078,-21.11733 -41.00457,-27.64502c-15.97953,-6.75869 -32.71705,-10.13803 -50.21257,-10.13803c-17.49565,0 -34.23334,3.37934 -50.21306,10.13803c-15.43336,6.52775 -29.10119,15.74276 -41.00349,27.64502zM148.54463,234.99961c0,-17.15164 3.31239,-33.55887 9.93717,-49.2217c6.39889,-15.12875 15.43242,-28.52725 27.1006,-40.19551c11.66838,-11.66824 25.06688,-20.70178 40.19551,-27.1006c15.6627,-6.62478 32.06993,-9.93717 49.2217,-9.93717c17.15223,0 33.55956,3.31239 49.222,9.93717c15.12915,6.39895 28.52743,15.43248 40.19482,27.1006c11.66805,11.66772 20.70178,25.06622 27.10119,40.19551c6.62478,15.66244 9.93717,32.06967 9.93717,49.2217c0,17.15157 -3.31239,33.5589 -9.93717,49.222c-6.3981,15.12719 -15.43183,28.52546 -27.10119,40.19482c-11.66739,11.66805 -25.06567,20.70178 -40.19482,27.10119c-15.66309,6.62478 -32.07043,9.93717 -49.222,9.93717c-17.15046,0 -33.55773,-3.31239 -49.2218,-9.93717c-15.12773,-6.3981 -28.5262,-15.43183 -40.19541,-27.10119c-11.66831,-11.66805 -20.70184,-25.06632 -27.1006,-40.19482c-6.62478,-15.66375 -9.93717,-32.07108 -9.93717,-49.222z" data-paper-data="{&quot;isBaseLogoContainer&quot;:true}"></path></g></g></g>


</svg>